<?xml version="1.0" encoding="iso-8859-1"?>
<!-- Generator: Adobe Illustrator 19.0.0, SVG Export Plug-In . SVG Version: 6.00 Build 0)  -->
<svg version="1.1" id="Layer_1" xmlns="http://www.w3.org/2000/svg" xmlns:xlink="http://www.w3.org/1999/xlink" x="0px" y="0px"
	 viewBox="0 0 512 512" style="enable-background:new 0 0 512 512;" xml:space="preserve">
<g>
	<path style="fill:#ABB8B9;" d="M299.588,263.345c-1.384,2.404-3.342,4.271-5.603,5.53l-30.582,17.651l0.013,0.027l-30.801,17.783
		c-7.044,4.084-16.064,1.679-20.146-5.369c-1.348-2.331-1.991-4.875-1.985-7.388h-0.032v-35.563v-35.57
		c0-8.158,6.616-14.774,14.777-14.774c3.057,0,5.898,0.925,8.255,2.516l29.933,17.285l0.758,0.468l29.987,17.315
		C301.209,247.304,303.638,256.297,299.588,263.345L299.588,263.345z M74.667,426.662h362.665v-85.329v-85.336v-85.334V85.335
		H74.667v85.329v85.334v85.336V426.662z"/>
	<path style="fill:#FCD051;" d="M293.985,268.875c2.26-1.259,4.219-3.126,5.603-5.53c4.05-7.048,1.621-16.041-5.425-20.087
		l-29.987-17.315l-0.758-0.468l-29.933-17.285c-2.356-1.592-5.197-2.516-8.255-2.516c-8.16,0-14.777,6.615-14.777,14.774v35.57
		v35.563h0.032c-0.005,2.512,0.638,5.056,1.985,7.388c4.081,7.048,13.101,9.452,20.146,5.369l30.801-17.783l-0.013-0.027
		L293.985,268.875z"/>
</g>
<g>
	<path style="fill:#000003;" d="M501.333,42.666c-5.892,0-10.668,4.776-10.668,10.667v21.333h-42.666V53.333
		c0-5.892-4.775-10.667-10.667-10.667c-5.89,0-10.668,4.776-10.668,10.667v21.333H85.335V53.333c0-5.892-4.777-10.667-10.667-10.667
		C68.775,42.666,64,47.442,64,53.333v21.333H21.335V53.333c0-5.892-4.776-10.667-10.667-10.667C4.777,42.666,0,47.442,0,53.333
		v405.334c0,5.892,4.777,10.667,10.667,10.667c5.892,0,10.667-4.776,10.667-10.667V437.33H64v21.337
		c0,5.892,4.776,10.667,10.667,10.667c5.891,0,10.667-4.776,10.667-10.667V437.33h341.33v21.337c0,5.892,4.778,10.667,10.668,10.667
		c5.893,0,10.667-4.776,10.667-10.667V437.33h42.666v21.337c0,5.892,4.776,10.667,10.668,10.667c5.889,0,10.667-4.776,10.667-10.667
		V53.333C512,47.442,507.223,42.666,501.333,42.666z M64,245.33H21.335v-63.999H64V245.33z M21.335,266.665H64v64.001H21.335
		V266.665z M85.335,96.001h341.33v319.994H85.335V96.001z M447.999,181.331h42.666v63.999h-42.666V181.331z M447.999,266.665h42.666
		v64.001h-42.666V266.665z M490.665,159.996h-42.666V96.002h42.666V159.996z M64,96.001v63.994H21.335V96.001H64z M21.335,352H64
		v63.994H21.335V352z M447.999,415.995V352h42.666v63.994H447.999z"/>
	<path style="fill:#000003;" d="M299.494,234.016l-29.738-17.166c-0.321-0.206-0.65-0.409-1.006-0.614l-29.649-17.12
		c-4.127-2.689-8.914-4.111-13.872-4.111c-14.03,0-25.444,11.413-25.444,25.442v71.133c0,0.361,0.017,0.715,0.052,1.065
		c0.173,4.09,1.34,8.103,3.402,11.669c4.528,7.821,12.959,12.68,22.002,12.68c4.457,0,8.857-1.185,12.71-3.419l30.799-17.783
		c0.227-0.131,0.45-0.271,0.665-0.417l29.84-17.224c3.985-2.238,7.299-5.517,9.583-9.49
		C315.81,256.524,311.612,240.98,299.494,234.016z M290.339,258.028c-0.373,0.65-0.892,1.165-1.541,1.525
		c-0.05,0.027-0.098,0.054-0.146,0.083l-30.582,17.651c-0.229,0.133-0.452,0.273-0.667,0.419l-30.135,17.4
		c-0.632,0.367-1.313,0.553-2.027,0.553c-1.479,0-2.8-0.763-3.535-2.031c-0.369-0.638-0.556-1.327-0.556-2.048
		c0-0.271-0.011-0.54-0.029-0.806v-70.326c0-2.265,1.843-4.107,4.109-4.107c0.838,0,1.607,0.231,2.282,0.688
		c0.208,0.142,0.421,0.275,0.64,0.4l29.9,17.266c0.081,0.048,0.16,0.096,0.24,0.148c0.181,0.121,0.365,0.236,0.555,0.343
		l30.004,17.32C290.781,253.615,291.45,256.095,290.339,258.028z"/>
	<path style="fill:#000003;" d="M311.024,117.336h-0.254c-5.892,0-10.668,4.776-10.668,10.667c0,5.892,4.776,10.667,10.668,10.667
		h0.254c5.892,0,10.668-4.776,10.668-10.667C321.692,122.112,316.916,117.336,311.024,117.336z"/>
	<path style="fill:#000003;" d="M394.666,117.332h-52.997c-5.892,0-10.667,4.776-10.667,10.667c0,5.89,4.776,10.667,10.667,10.667
		h52.998c5.891,0,10.667-4.778,10.667-10.667C405.334,122.108,400.557,117.332,394.666,117.332z"/>
	<path style="fill:#000003;" d="M170.331,373.329h-52.997c-5.891,0-10.667,4.776-10.667,10.667s4.777,10.668,10.667,10.668h52.997
		c5.892,0,10.667-4.776,10.667-10.668C180.998,378.105,176.223,373.329,170.331,373.329z"/>
	<path style="fill:#000003;" d="M201.229,373.333h-0.254c-5.892,0-10.667,4.776-10.667,10.667s4.776,10.667,10.667,10.667h0.254
		c5.892,0,10.667-4.776,10.667-10.667C211.897,378.108,207.121,373.333,201.229,373.333z"/>
</g>
<g>
</g>
<g>
</g>
<g>
</g>
<g>
</g>
<g>
</g>
<g>
</g>
<g>
</g>
<g>
</g>
<g>
</g>
<g>
</g>
<g>
</g>
<g>
</g>
<g>
</g>
<g>
</g>
<g>
</g>
</svg>
