<?xml version="1.0" encoding="iso-8859-1"?>
<!-- Generator: Adobe Illustrator 19.0.0, SVG Export Plug-In . SVG Version: 6.00 Build 0)  -->
<svg version="1.1" id="Layer_1" xmlns="http://www.w3.org/2000/svg" xmlns:xlink="http://www.w3.org/1999/xlink" x="0px" y="0px"
	 viewBox="0 0 512 512" style="enable-background:new 0 0 512 512;" xml:space="preserve">
<path style="fill:#39A3DB;" d="M453.1,74.351H58.901c-9.303,0-16.844,7.542-16.844,16.844v268.03
	c0,9.302,7.542,16.844,16.844,16.844H453.1c9.302,0,16.844-7.542,16.844-16.844V91.195C469.944,81.892,462.403,74.351,453.1,74.351z
	"/>
<path style="fill:#2275AA;" d="M453.1,74.351H256v301.72h197.1c9.302,0,16.844-7.542,16.844-16.844V91.195
	C469.944,81.892,462.403,74.351,453.1,74.351z"/>
<path style="fill:#FFE49C;" d="M400.412,323.383c9.303,0,16.844-7.542,16.844-16.844V143.882c0-9.303-7.542-16.844-16.844-16.844
	H111.588c-9.303,0-16.844,7.542-16.844,16.844v162.657c0,9.303,7.542,16.844,16.844,16.844H400.412z"/>
<path style="fill:#FFC72D;" d="M400.412,127.038H256v196.346h144.412c9.303,0,16.844-7.542,16.844-16.844V143.882
	C417.257,134.579,409.716,127.038,400.412,127.038z"/>
<path style="fill:#2275AA;" d="M495.156,342.381H16.844C7.542,342.381,0,349.923,0,359.225v44.016
	c0,18.971,15.435,34.407,34.406,34.407h443.188c18.972,0,34.406-15.435,34.406-34.407v-44.016
	C512,349.923,504.459,342.381,495.156,342.381z"/>
<path style="fill:#2264AA;" d="M495.156,342.381H256v95.268h221.594c18.972,0,34.406-15.435,34.406-34.407v-44.016
	C512,349.923,504.459,342.381,495.156,342.381z"/>
<rect x="212.675" y="342.376" style="fill:#74B8E5;" width="86.636" height="95.271"/>
<rect x="255.999" y="342.376" style="fill:#3994DB;" width="43.32" height="95.271"/>
<path style="fill:#FF905E;" d="M300.6,208.366h-2.162c-4.641-11.652-13.943-20.953-25.594-25.594v-2.162
	c0-9.303-7.542-16.844-16.844-16.844c-9.303,0-16.844,7.542-16.844,16.844v2.162c-11.652,4.641-20.953,13.943-25.594,25.594H211.4
	c-9.303,0-16.844,7.542-16.844,16.844c0,9.303,7.542,16.844,16.844,16.844h2.162c4.641,11.652,13.943,20.953,25.594,25.594v2.162
	c0,9.303,7.542,16.844,16.844,16.844c9.303,0,16.844-7.542,16.844-16.844v-2.162c11.652-4.641,20.952-13.943,25.594-25.594h2.162
	c9.303,0,16.844-7.542,16.844-16.844C317.444,215.908,309.903,208.366,300.6,208.366z M256,237.193
	c-6.607,0-11.983-5.376-11.983-11.983s5.376-11.983,11.983-11.983s11.983,5.376,11.983,11.983S262.607,237.193,256,237.193z"/>
<path style="fill:#E87E04;" d="M300.6,208.366h-2.162c-4.641-11.652-13.943-20.953-25.594-25.594v-2.162
	c0-9.303-7.542-16.844-16.844-16.844v49.461c6.607,0,11.983,5.376,11.983,11.983s-5.376,11.983-11.983,11.983v49.461
	c9.303,0,16.844-7.542,16.844-16.844v-2.162c11.652-4.641,20.952-13.943,25.594-25.594h2.162c9.303,0,16.844-7.542,16.844-16.844
	S309.903,208.366,300.6,208.366z"/>
<g>
</g>
<g>
</g>
<g>
</g>
<g>
</g>
<g>
</g>
<g>
</g>
<g>
</g>
<g>
</g>
<g>
</g>
<g>
</g>
<g>
</g>
<g>
</g>
<g>
</g>
<g>
</g>
<g>
</g>
</svg>
